<?xml version="1.0" encoding="UTF-8" standalone="no"?>
<svg
   viewBox="138 128 752 748"
   role="img"
   aria-labelledby="title desc"
   version="1.1"
   id="svg5"
   sodipodi:docname="diffowl_logo.svg"
   inkscape:version="1.4.4 (dcaf3e7, 2026-05-05)"
   xmlns:inkscape="http://www.inkscape.org/namespaces/inkscape"
   xmlns:sodipodi="http://sodipodi.sourceforge.net/DTD/sodipodi-0.dtd"
   xmlns="http://www.w3.org/2000/svg"
   xmlns:svg="http://www.w3.org/2000/svg">
  <defs
     id="defs5" />
  <sodipodi:namedview
     id="namedview5"
     pagecolor="#ffffff"
     bordercolor="#000000"
     borderopacity="0.25"
     inkscape:showpageshadow="2"
     inkscape:pageopacity="0.0"
     inkscape:pagecheckerboard="0"
     inkscape:deskcolor="#d1d1d1"
     inkscape:zoom="0.85042811"
     inkscape:cx="321.60273"
     inkscape:cy="650.84867"
     inkscape:window-width="2560"
     inkscape:window-height="1578"
     inkscape:window-x="0"
     inkscape:window-y="58"
     inkscape:window-maximized="1"
     inkscape:current-layer="g5" />
  <title
     id="title">Diffowl logo</title>
  <desc
     id="desc">A watchful cream owl holding a small gold bug while perched on a branching Git graph, on a dark navy rounded-square background.</desc>
  <!-- Git branch / perch -->
  <!-- Owl body -->
  <!-- Wings -->
  <!-- Eyes -->
  <!-- Beak -->
  <!-- Bug -->
  <!-- Feet -->
  <g
     id="g5">
    <title
       id="title1">Layer 1</title>
    
    <g
       fill="none"
       stroke="#8fa3f0"
       stroke-linecap="round"
       stroke-linejoin="round"
       id="svg_2">
      <path
         d="m157,695l709,0"
         stroke-width="23"
         id="svg_3" />
      <path
         d="m707,695l120,-109m-69,63l0,-70"
         stroke-width="23"
         id="svg_4" />
      <path
         d="m500,695l165,133"
         stroke-width="23"
         id="svg_5" />
    </g>
    <circle
       cx="670"
       cy="832"
       r="27"
       fill="#8fa3f0"
       id="svg_6" />
    <path
       fill="#ffffff"
       stroke="#191c1f" stroke-width="12"
       d="m345.10207,153c23.09971,14.31559 49.34939,25.76806 81.89898,32.44867c54.59932,-19.08745 113.39859,-19.08745 167.99791,0c32.54959,-6.68061 58.79927,-18.13308 81.89898,-32.44867c3.14996,25.76806 -4.19995,45.80989 -20.99974,62.98859c29.39963,25.76806 45.14944,58.21673 44.09945,96.39164c-1.04999,23.85932 -8.3999,43.90114 -20.99974,62.98859c-11.54986,17.17871 -19.94975,36.26616 -24.1497,56.30799c-9.44988,42.94677 -7.34991,91.61977 5.24993,146.97339l12.59984,47.71863l-28.34965,17.17871c-13.64983,7.63498 -28.34965,11.45247 -44.09945,11.45247l-178.49778,0c-15.7498,0 -30.44962,-3.81749 -44.09945,-11.45247l-28.34965,-17.17871l12.59984,-47.71863c12.59984,-55.35361 14.69982,-104.02662 5.24993,-146.97339c-4.19995,-20.04183 -12.59984,-39.12928 -24.1497,-56.30799c-12.59984,-19.08745 -19.94975,-39.12928 -20.99974,-62.98859c-1.04999,-38.17491 14.69982,-70.62358 44.09945,-96.39164c-16.79979,-17.17871 -24.1497,-37.22053 -20.99974,-62.98859l0.00003,0z"
       id="svg_7" />
    <path
       d="m333,372c41,50 73,76 82,118c12,54 -7,111 -47,151c-46,-53 -67,-111 -65,-172c1,-39 11,-72 30,-97z"
       fill="#ffffff"
       stroke="#191c1f"
       stroke-width="15"
       stroke-linejoin="round"
       id="svg_8" />
    <path
       d="m691,372c-41,50 -73,76 -82,118c-12,54 7,111 47,151c46,-53 67,-111 65,-172c-1,-39 -11,-72 -30,-97z"
       fill="#ffffff"
       stroke="#191c1f"
       stroke-width="15"
       stroke-linejoin="round"
       id="svg_9" />
    <g
       stroke="#191c1f"
       stroke-linecap="round"
       stroke-linejoin="round"
       id="svg_10">
      <path
         d="M389 279 C377 298 375 321 385 341 C396 362 414 368 435 368 C456 368 474 362 485 341 C491 329 490 317 484 306 C481 301 477 298 474 297"
         fill="none"
         stroke-width="17"
         id="svg_11" />
      <path
         d="M550 297 C547 298 543 301 540 306 C534 317 533 329 539 341 C550 362 568 368 589 368 C610 368 628 362 639 341 C649 321 647 298 635 279"
         fill="none"
         stroke-width="17"
         id="svg_12" />
      <circle
         cx="435"
         cy="312"
         r="30"
         fill="#191c1f"
         id="svg_13" />
      <circle
         cx="589"
         cy="312"
         r="30"
         fill="#191c1f"
         id="svg_14" />
      <circle
         cx="450"
         cy="298"
         r="8"
         fill="#ffffff"
         id="svg_15" />
      <circle
         cx="604"
         cy="298"
         r="8"
         fill="#ffffff"
         id="svg_16" />
    </g>
    <g
       fill="#191c1f"
       id="svg_17">
      <path
         d="M378 244 C374 242 370 245 369 249 C368 253 370 257 374 259 L480 307 Q489 309 489 299 L489 292 Q489 284 481 281 L384 245 C382 244 380 244 378 244 Z"
         id="path1" />
      <path
         d="M646 244 C650 242 654 245 655 249 C656 253 654 257 650 259 L544 307 Q535 309 535 299 L535 292 Q535 284 543 281 L640 245 C642 244 644 244 646 244 Z"
         id="path2" />
    </g>
    
    <path
       d="m512,345c15,0 24,13 21,27l-17,42c-2,5 -6,5 -8,0l-17,-42c-3,-14 6,-27 21,-27z"
       fill="#191c1f"
       id="svg_18" />
    <!-- Bug adapted from bug-svgrepo-com.svg supplied by the project owner. -->
    <g
       fill="#ffffff"
       stroke="#191c1f"
       stroke-width="14"
       id="svg_25">
      <rect
         x="399"
         y="633"
         width="39"
         height="82"
         rx="19"
         id="svg_26" />
      <rect
         x="435"
         y="633"
         width="39"
         height="82"
         rx="19"
         id="svg_27" />
      <rect
         x="550"
         y="633"
         width="39"
         height="82"
         rx="19"
         id="svg_28" />
      <rect
         x="586"
         y="633"
         width="39"
         height="82"
         rx="19"
         id="svg_29" />
    </g>
  </g>
</svg>
